<?xml version="1.0" encoding="utf-8"?>
<!-- Generator: Adobe Illustrator 23.0.5, SVG Export Plug-In . SVG Version: 6.00 Build 0)  -->
<svg version="1.1" id="Layer_2" xmlns="http://www.w3.org/2000/svg" xmlns:xlink="http://www.w3.org/1999/xlink" x="0px" y="0px"
	 viewBox="0 0 304 276" style="enable-background:new 0 0 304 276;" xml:space="preserve">
<style type="text/css">
	.st0{display:none;fill:#6C0F3A;}
	.st1{fill:#FFFFFF;}
	.st2{fill:#3C3C3B;}
</style>
<rect x="-100" y="-72" class="st0" width="450" height="454"/>
<g>
	<path class="st1" d="M146.3,209.6c-0.1,0-0.3,0-0.4,0c-0.4,0.1-0.8,0.2-1.2,0.4c-0.4,0.2-0.8,0.3-1.2,0.4c-0.1,0-0.1,0-0.2,0
		l0.3,0.1h3h1.8C147.9,210,147.1,209.6,146.3,209.6z"/>
</g>
<g>
	<path class="st1" d="M147.8,206c-0.2-0.1-0.4-0.3-0.6-0.4c-0.1,0-0.1-0.1-0.2-0.1c-0.1-0.1-0.3-0.1-0.4-0.2c-0.1,0-0.2,0-0.3-0.1
		c-0.1,0-0.3-0.1-0.4-0.1c-0.1,0-0.2,0-0.3,0c-0.1,0-0.3,0-0.4,0c-0.2,0-0.3,0-0.5,0c-0.1,0-0.2,0-0.3,0.1c-0.2,0-0.3,0.1-0.5,0.1
		c-0.1,0-0.2,0.1-0.3,0.1c-0.2,0.1-0.3,0.2-0.5,0.3c-0.1,0-0.2,0.1-0.2,0.1c-0.2,0.2-0.4,0.3-0.6,0.6c-0.5,0.6-0.7,1.5-0.2,2
		c0.1,0.1,0.2,0.2,0.3,0.2c0,0,0,0,0.1,0c0.1,0,0.2,0.1,0.4,0.1c0,0,0.1,0,0.1,0c0.1,0,0.2,0,0.3,0c0,0,0.1,0,0.1,0
		c0.1,0,0.3,0,0.4-0.1c0.2,0,0.3-0.1,0.5-0.1c0.1,0,0.1,0,0.2,0c0.2,0,0.4-0.1,0.5-0.1c0,0,0,0,0.1,0c0,0,0,0,0,0
		c0.2,0,0.3,0,0.5,0.1c0.5,0.2,0.9,0.7,1.1,1.2c0.2,0.5,0.1,1.1,0.1,1.7c-0.2,1.5-0.6,3-1.2,4.4c1.8-0.8,3.4-2.4,3.9-4.4
		C150,209.6,149.4,207.2,147.8,206z"/>
</g>
<g>
	<path class="st1" d="M141.8,211.9c0.1,0.1,0.2,0.2,0.3,0.3c0.1,0.1,0.1,0.1,0.2,0.2c0.1,0.1,0.2,0.2,0.3,0.2
		c0.1,0.1,0.1,0.1,0.2,0.1c0.1,0.1,0.2,0.1,0.3,0.2c0.1,0,0.2,0.1,0.2,0.1c0.1,0,0.2,0.1,0.3,0.1c0.1,0,0.2,0.1,0.2,0.1
		c0.1,0,0.2,0.1,0.3,0.1c0.1,0,0.2,0,0.3,0.1c0.1,0,0.2,0,0.3,0c0.1,0,0.2,0,0.3,0c0.2,0,0.3,0,0.5,0c-0.7-0.4-1.4-0.7-1.9-1.3
		c-0.2-0.2-0.3-0.4-0.5-0.6c-0.2-0.3-0.3-0.7-0.3-1.1c0-0.7,0.3-1.3,0.9-1.6c0.1-0.1,0.2-0.1,0.4-0.1c0,0,0.1,0,0.1,0
		c0.1,0,0.1,0,0.2,0c0,0,0,0,0.1,0c0.1,0,0.2,0,0.3,0c0,0,0.1,0,0.1,0c0.1,0,0.3,0.1,0.4,0.1c0.5,0.2,1,0.5,1.5,0.8
		c0.3,0.1,0.6,0.2,0.9,0.3c0.1,0,0.1,0,0.2,0c0.3,0.1,0.6,0.1,0.9,0.1c0.2,0,0.3,0,0.5,0c0.7-0.1,1.4-0.4,1.6-1
		c0.2-0.8-0.6-1.4-1.2-1.8c-0.8-0.5-1.7-1-2.6-1.2c-0.3-0.1-0.6-0.2-0.9-0.2c-0.3,0-0.6-0.1-0.9-0.1c-0.1,0-0.2,0-0.2,0
		c-0.2,0-0.4,0-0.6,0.1c-0.1,0-0.2,0-0.3,0.1c-0.2,0.1-0.4,0.1-0.6,0.2c-0.1,0-0.2,0.1-0.3,0.1c-0.3,0.1-0.5,0.3-0.7,0.5
		c-1.2,1.1-1.6,3-0.8,4.5c0.1,0.2,0.2,0.3,0.3,0.5C141.7,211.8,141.7,211.9,141.8,211.9z"/>
</g>
<g>
	<path class="st1" d="M142.2,206.3c-0.5,0.3-1,0.6-1.3,1.1c-0.3,0.5-0.4,1.1-0.1,1.6c0.3,0.5,0.9,0.8,1.6,0.8c0.3,0,0.5,0,0.7-0.1
		c0.6-0.2,1.2-0.5,1.8-0.7c0.2-0.1,0.4-0.1,0.6-0.2c0.2,0,0.4-0.1,0.6-0.1c1.1,0,2.2,0.6,2.8,1.5c0.7,1.1,0.8,2.6,0.1,3.7
		c1.5-0.9,2.3-2.9,1.9-4.6c-0.4-1.7-1.9-3.1-3.6-3.7c-0.6-0.2-1.2-0.3-1.8-0.3C144.4,205.4,143.2,205.7,142.2,206.3z"/>
</g>
<g>
	<path class="st1" d="M147.4,205.7c-1.7-0.5-3.6-0.2-5.2,0.6c-0.5,0.3-1,0.6-1.3,1.1c-0.3,0.5-0.4,1.1-0.1,1.6
		c0.4,0.8,1.5,0.9,2.3,0.7c0.8-0.2,1.6-0.7,2.5-0.9c1.3-0.2,2.7,0.3,3.4,1.4c0.7,1.1,0.8,2.6,0.1,3.7c1.5-0.9,2.3-2.9,1.9-4.6
		C150.5,207.6,149.1,206.2,147.4,205.7z"/>
</g>
<g>
	<g>
		<path class="st1" d="M163,202.5c2.1,2.7-2.3,3.1-5.7,4c0,0,0,0,0,0l0,0l0,0c0,0,0,0,0,0c1.8,1.1,1.8,2.3,1.7,2.9
			c-0.1,0.5-0.5,1-0.9,1.3h18.8c0-0.2,0-0.3-0.1-0.5c-0.1-0.3-0.3-0.5-0.4-0.6c0,0-0.1,0-0.2,0c-0.1,0-0.2,0-0.3,0c0,0-0.1,0-0.1,0
			c-0.1,0-0.2,0.1-0.4,0.1l-0.3,0.1c-0.3,0.1-0.7,0.1-1,0.1c-0.9,0-1.4-0.4-1.7-0.7c-0.9-0.9-0.6-2.4,0.1-3.3
			c0.9-1.1,2.2-1.7,3.7-1.7c0.8,0,1.7,0.2,2.4,0.6c0.2,0.1,0.5,0.3,0.7,0.4c0.8,0.6,1.4,1.4,1.8,2.4c0.4,0.9,0.5,2,0.5,3h1.1h5.4
			c-0.6-0.2-1-0.6-1.3-1.1c-0.4-0.8-0.4-1.8,0.2-2.7c0.4-0.6,0.8-0.9,1.3-1.2c-3.8-0.6-9-0.7-11.7-2.9c-2.4-1.9-5-15.4-6.4-22
			c0.2-0.1,0.5-0.3,0.7-0.4c0.2,1.1,0.5,2.3,0.8,3.7c0.2,1,0.5,2.1,0.7,3.2c4.5,5.4,9.9,12.6,11.9,15.1c0.6,0.8,0.7,1.4,0.3,1.9
			c0.4,0.1,0.9,0.1,1.3,0.2c0.9,0.1,1.7,0.2,2.5,0.3l1.5,0.2c0.9-0.3,1.8-0.5,2.6-0.5c0.7,0,1.4,0.1,2,0.3c2,0.6,3.6,2.3,4.1,4.2
			c0.1,0.5,0.1,1,0.1,1.5h6.1h4.7c-0.6-0.2-1-0.6-1.3-1.1c-0.4-0.8-0.4-1.8,0.2-2.7c0.4-0.6,0.8-0.9,1.3-1.2
			c-3.8-0.6-9-0.7-11.7-2.9c-2.3-1.9-8.2-26.5-10-34.2c13.6-12.3,22.6-29.6,20.7-53.9c0,0,0.1,0,0.1,0c0-0.1-0.1-0.3-0.1-0.4
			c-0.1-0.9-0.1-1.8-0.2-2.7c-2.4-20.7,0.9-19.5,0.7-37.2c0-7.3-2.1-14.3-6.6-19.4c3.7-1.4,8-1.8,11.9-0.8c-4.2-2.8-10-3.5-15-2
			c0,0-0.1-0.1-0.2-0.1l-20,5.8l-0.5,0.1l-0.5-0.1l-21.4-6.2c-4.4-0.7-9.1,0.1-12.6,2.5c3.7-0.9,7.8-0.7,11.4,0.6
			c-5.7,5.9-7.9,13.9-7.2,21c1.1,10.6,0.9,15.8-0.2,19.8c-7.7,3.7-15.1,11.1-21,23.4c-10.9,22.6-24,44.2-33,58h0
			c-1,1.5-10.5,15.6-10.5,15.6s0.1,0,0.4,0c0,0,2.6-0.4,6.9-1.2L80,204.9l-4.4,5.4h6.9h42.1h2.6l0.7-2.5l3.6-13.6
			c6.1-1.3,12.5-3,19.1-5.2c0.3-0.1,0.5-0.2,0.8-0.3C155.1,192.4,160.3,199,163,202.5z M205.5,118.2c-4.6,1.3-9.3,2.3-14,2.9
			c-0.1-1-0.2-1.9-0.4-2.9c4.8-0.6,9.6-1.5,14.3-2.7C205.4,116.4,205.4,117.3,205.5,118.2z M167.4,65.6c0.5,0.6,1,1.3,1.6,1.8
			c-0.7,0.1-1.3,0.6-1.6,1.1c0.4,0.2,0.6,0.6,0.6,1.1c0,0.5-0.3,0.9-0.7,1.1c0.4,0.7,1.2,1.3,2.2,1.3c1.2,0,2.3-0.9,2.4-2
			c0.8,0.6,1.7,1.1,2.7,1.5c-0.8,1.7-2.5,3-4.6,3c-2.8,0-5-2.2-5-4.8C164.9,68,165.9,66.4,167.4,65.6z M187.7,69
			c0.1,0.2,0.2,0.4,0.2,0.7c0,0.5-0.3,0.9-0.6,1.1c0.4,0.7,1.2,1.2,2.1,1.2c1.3,0,2.4-1,2.4-2.3c0-1.3-1.1-2.3-2.4-2.3
			c0.6-0.6,1.1-1.3,1.7-2c1.7,0.8,2.8,2.4,2.8,4.3c0,2.7-2.3,4.8-5,4.8c-2.2,0-4-1.3-4.7-3.1C185.6,70.8,186.6,70,187.7,69z
			 M130.1,120.4c7.6-15.8,18.4-24.5,30.6-24.5l0-3.3c0,0,0,0,0,0c-2.9,0-5.9,0.5-8.9,1.4c0.7-4.1,0.7-9.5-0.3-18.6
			c-0.7-7.1,2-14.3,7.1-19.1c1.1,0.6,2.1,1.4,3,2.2c-0.9,0.2-1.7,0.5-2.5,1c-3.5,2.1-5.4,6.5-4.7,10.5c0.7,4,3.8,7.5,7.6,8.8
			c1,0.3,2.1,0.5,3.1,0.6c0.1,0,0.2,0,0.3,0.1c1.8,0.4,3.7,0.6,5.1,1.8c1.6,1.4,2.1,3.6,3.4,5.3c1.1,1.4,2.9,2.4,4.7,2.5l-1.3-2.2
			c-0.3-0.5-2.9-5.1-2.9-9.1c0-0.4,0-0.7,0-1.1c-2.8,1.4-6.2,1.8-9.2,0.8c-3.6-1.2-6.4-4.4-7-8.1c-0.6-3.7,1.1-7.8,4.3-9.7
			c0,0,0.1,0,0.1-0.1c1.2,1.4,2.3,2.9,3.4,4.4c-2.6,0.9-4.4,3.2-4.4,6c0,3.5,3,6.3,6.6,6.3c3,0,5.6-2,6.4-4.7
			c1.1,0.4,2.5,0.6,4.5,0.7c2.2-0.1,3.7-0.4,4.9-0.8c0.7,2.8,3.3,4.8,6.4,4.8c3.6,0,6.6-2.8,6.6-6.3c0-2.9-2-5.3-4.8-6.1
			c1-1.5,2.1-2.9,3.3-4.3c0,0,0.1,0,0.1,0.1c3.2,1.9,5,6,4.3,9.7c-0.6,3.7-3.5,6.9-7,8.1c-3,1-6.3,0.7-9.2-0.8c0,0.3,0,0.7,0,1.1
			c0,4-2.6,8.6-2.9,9.1l-1.3,2.2c1.8-0.2,3.6-1.1,4.7-2.5c1.3-1.7,1.8-3.9,3.4-5.3c1.4-1.2,3.3-1.4,5.1-1.8c0.1,0,0.2,0,0.3-0.1
			c1.1-0.1,2.1-0.3,3.1-0.6c3.9-1.3,7-4.8,7.6-8.8c0.7-4-1.2-8.4-4.7-10.5c-0.8-0.5-1.6-0.8-2.5-1c0.8-0.7,1.6-1.4,2.6-1.9
			c4.3,4.4,6.4,10.9,6.4,17.9v0l0,0c0.1,7.1-0.4,10.9-0.8,14.6c-0.6,4.6-1.1,8.7-0.4,17.2c-5.4,1.5-11,2.5-16.5,3.1
			c-5.3-9.8-15.8-16.8-27.2-16.8v3.3c7.3,0,14.6,3.3,19.9,9c5.3,5.6,8,13,7.5,20.3c-0.3,4.3-1.3,8.5-2.9,12.5
			c-1.6,3.8-3.5,7.7-6.6,11c-4.3,4.7-8.3,8.6-15.8,12.4c-20.4,10.3-46.9,14.3-64.7,15.7C107.3,162.6,119.8,142,130.1,120.4z
			 M124.7,207H82.6h0l13.4-16.6l0,0c0.5-0.1,1.1-0.2,1.6-0.3l-4.3,6.3c-1.9,2.8-1.9,6.3,0.1,7.6c2,1.3,5.2-0.3,6.8-3.3l7.3-12.9
			c0.6-0.1,1.1-0.3,1.7-0.4l-5.3,10.1c-1.6,3-1.2,6.5,1,7.5c2.2,1,5.1-0.9,6.4-4l6.8-16.1c0.9-0.2,1.7-0.5,2.6-0.8l-5.9,14.1
			c-1.3,3.2-0.6,6.6,1.6,7.4c2.3,0.8,5-1.3,6.1-4.6l6.4-19.6c1-0.3,1.9-0.7,2.9-1L124.7,207z M132.5,190.7l3.1-11.6
			c22.3-8.4,45.1-21.3,52.8-40.2c1.7-4.2,2.8-8.7,3.1-13.5c0,0,0,0,0,0c4.7-0.6,9.4-1.6,14-2.8c-0.3,14.7-5.1,27.4-14.3,37.9
			c-15,17.2-39.3,25.7-57,29.8C133.6,190.4,133.1,190.5,132.5,190.7z"/>
	</g>
	<g>
		<path class="st1" d="M181.8,77.8c0-3.6-1.2-4.9-2.7-4.9c-1.5,0-2.7,1.3-2.7,4.9c0,3.6,2.7,8.1,2.7,8.1S181.8,81.4,181.8,77.8z"/>
	</g>
	<g>
		<path class="st1" d="M135.8,123.4c-1.7-1.7-2.4-4.4-1.5-6.7c-0.9,1.4-1.2,1.2-1.9,2.7c-0.9,1.8-0.8,4,0.3,5.7
			c1.1,1.7,3.1,2.7,5.1,2.6c2-0.1,3.9-1.3,4.8-3.1C140.3,125.6,137.6,125.1,135.8,123.4z"/>
	</g>
	<g>
		<path class="st1" d="M148.3,131c-2.1-1.3-3.3-3.8-2.9-6.2c-0.5,1.5-0.9,1.5-1.3,3c-0.5,1.9,0.1,4.1,1.5,5.5s3.6,2,5.5,1.5
			c1.9-0.5,3.5-2.1,4.1-4C153.1,132.2,150.3,132.3,148.3,131z"/>
	</g>
	<g>
		<path class="st1" d="M135.2,134c-2.1-1.3-3.3-3.8-2.9-6.2c-0.5,1.5-0.9,1.5-1.3,3c-0.5,1.9,0.1,4.1,1.5,5.5c1.4,1.4,3.6,2,5.5,1.5
			c1.9-0.5,3.5-2.1,4.1-4C140,135.1,137.2,135.2,135.2,134z"/>
	</g>
	<g>
		<path class="st1" d="M163.7,141.5c1.9-0.5,3.5-2.1,4.1-4c-2,1.4-4.8,1.5-6.9,0.2c-2.1-1.3-3.3-3.8-2.9-6.2c-0.5,1.5-0.9,1.5-1.3,3
			c-0.5,1.9,0.1,4.1,1.5,5.5S161.8,142.1,163.7,141.5z"/>
	</g>
	<g>
		<path class="st1" d="M148.3,142.1c-2.1-1.3-3.3-3.8-2.9-6.2c-0.5,1.5-0.9,1.5-1.3,3c-0.5,1.9,0.1,4.1,1.5,5.5
			c1.4,1.4,3.6,2,5.5,1.5c1.9-0.5,3.5-2.1,4.1-4C153.1,143.3,150.3,143.4,148.3,142.1z"/>
	</g>
	<g>
		<path class="st1" d="M135.2,145c-2.1-1.3-3.3-3.8-2.9-6.2c-0.5,1.5-0.9,1.5-1.3,3c-0.5,1.9,0.1,4.1,1.5,5.5c1.4,1.4,3.6,2,5.5,1.5
			c1.9-0.5,3.5-2.1,4.1-4C140,146.2,137.2,146.3,135.2,145z"/>
	</g>
	<g>
		<path class="st1" d="M166.9,149.1c-2,1.4-4.8,1.5-6.9,0.2c-2.1-1.3-3.3-3.8-2.9-6.2c-0.5,1.5-0.9,1.5-1.3,3
			c-0.5,1.9,0.1,4.1,1.5,5.5c1.4,1.4,3.6,2,5.5,1.5C164.8,152.6,166.4,151,166.9,149.1z"/>
	</g>
	<g>
		<path class="st1" d="M147.3,153.2c-2.1-1.3-3.3-3.8-2.9-6.2c-0.5,1.5-0.9,1.5-1.3,3c-0.5,1.9,0.1,4.1,1.5,5.5
			c1.4,1.4,3.6,2,5.5,1.5c1.9-0.5,3.5-2.1,4.1-4C152.2,154.4,149.4,154.5,147.3,153.2z"/>
	</g>
	<g>
		<path class="st1" d="M134.2,155.3c-2.1-1.3-3.3-3.8-2.9-6.2c-0.5,1.5-0.9,1.5-1.3,3c-0.5,1.9,0.1,4.1,1.5,5.5
			c1.4,1.4,3.6,2,5.5,1.5c1.9-0.5,3.5-2.1,4.1-4C139.1,156.5,136.3,156.5,134.2,155.3z"/>
	</g>
	<g>
		<path class="st1" d="M176.4,148.2c1.9-0.5,3.5-2.1,4.1-4c-2,1.4-4.8,1.5-6.9,0.2c-2.1-1.3-3.3-3.8-2.9-6.2c-0.5,1.5-0.9,1.5-1.3,3
			c-0.5,1.9,0.1,4.1,1.5,5.5C172.3,148.2,174.5,148.8,176.4,148.2z"/>
	</g>
	<g>
		<path class="st1" d="M197.2,133.6c1.8,0.3,3.8-0.5,5-1.9c1.2-1.5,1.5-3.5,0.8-5.3c-0.7,2.1-2.8,3.8-5.1,3.9
			c-2.3,0.2-4.6-1.1-5.6-3.1c0.5,1.5,0.1,1.6,0.7,3C193.7,131.9,195.4,133.3,197.2,133.6z"/>
	</g>
	<g>
		<path class="st1" d="M195.6,142.3c1.8,0.3,3.8-0.5,5-1.9c1.2-1.5,1.5-3.5,0.8-5.3c-0.7,2.1-2.8,3.8-5.1,3.9
			c-2.3,0.2-4.6-1.1-5.6-3.1c0.5,1.5,0.1,1.6,0.7,3C192.1,140.7,193.7,142,195.6,142.3z"/>
	</g>
	<g>
		<path class="st1" d="M190.6,151.1c1.8,0.6,3.9,0.1,5.2-1.1c1.4-1.3,2-3.3,1.6-5.1c-1.1,2-3.4,3.3-5.6,3.1
			c-2.3-0.2-4.4-1.8-5.1-3.9c0.2,1.5-0.1,1.6,0.2,3.1C187.4,149,188.8,150.5,190.6,151.1z"/>
	</g>
	<g>
		<path class="st1" d="M178.6,56.2l22.7-6.6c0.1,0,0.1-0.1,0.2-0.1V30.7l-3.8,0.9c0,0,0,0.1,0,0.1v1.6c0,0.4-0.3,0.7-0.7,0.7
			c-0.4,0-0.7-0.3-0.7-0.7V32l-17.8,4.5l-22.9-5.7l0,18.8c0,0,0,0,0,0c0.1,0,0.1,0.1,0.2,0.1h0L178.6,56.2z M197.1,34.7
			c0.8,0,1.4,0.5,1.4,1.2c0,0.7-0.6,1.2-1.4,1.2c-0.8,0-1.4-0.5-1.4-1.2C195.7,35.2,196.3,34.7,197.1,34.7z M195.5,36.9
			c0,0.2,0.2,0.4,0.5,0.5c0.6,0.3,1.7,0.3,2.3,0c0.3-0.1,0.5-0.3,0.5-0.5h0l0.8,7.4c0.1,0.3-0.2,0.6-0.7,0.9c-1,0.4-2.5,0.4-3.5,0
			c-0.5-0.2-0.8-0.6-0.7-0.9L195.5,36.9z"/>
	</g>
	<g>
		<path class="st1" d="M178.6,34.7l17.2-4.3c-0.2-0.2-0.4-0.3-0.7-0.4L177.9,25c-0.3-0.1-0.5-0.5-0.4-0.8c0.1-0.3,0.5-0.5,0.8-0.4
			l17.2,4.9c0.7,0.2,1.3,0.7,1.8,1.3l4.3-1.1l1.7-0.4l12.8-3.2v-1.9l-37.4-9.4l-37.4,9.4v1.9l12.8,3.2l1.7,0.4L178.6,34.7z"/>
	</g>
</g>
<g>
	<path class="st1" d="M43.9,260.4c-3.2,0-5.6-1-7.2-2.9c-1.7-1.9-2.5-4.7-2.5-8.3v-18.8c0-3.4,0.8-6,2.5-7.7
		c1.7-1.8,4.1-2.6,7.3-2.6s5.6,0.9,7.3,2.6c1.7,1.8,2.5,4.3,2.5,7.7v18.8c0,3.6-0.8,6.4-2.5,8.3C49.4,259.5,47,260.4,43.9,260.4z
		 M43.9,253.2c1.2,0,1.8-1.2,1.8-3.5v-19.3c0-1.9-0.6-2.9-1.8-2.9c-1.3,0-2,1-2,3v19.3c0,1.2,0.1,2.1,0.4,2.6
		C42.7,252.9,43.2,253.2,43.9,253.2z"/>
	<path class="st1" d="M59.9,260.1l-4.2-39.5h7.7l2.2,25l2.2-25h7.4l2.1,25l2.1-25h7.8l-4.3,39.5h-9.5l-2-19l-1.9,19H59.9z"/>
	<path class="st1" d="M89.5,260.1v-39.5h7.9v32.8h8.1v6.7H89.5z"/>
	<path class="st1" d="M118.3,260.1v-39.5h7.6v39.5H118.3z"/>
	<path class="st1" d="M129,260.1v-39.5h8.1l3.6,18.9v-18.9h7.6v39.5h-7.7l-4-19.8v19.8H129z"/>
	<path class="st1" d="M161.3,260.4c-3.6,0-6.2-0.9-7.8-2.7s-2.4-4.7-2.4-8.6v-3.9h7.8v4.9c0,0.9,0.1,1.6,0.4,2.1
		c0.3,0.5,0.8,0.8,1.4,0.8c0.7,0,1.2-0.2,1.5-0.6s0.4-1.1,0.4-2.1c0-1.2-0.1-2.2-0.4-3c-0.2-0.8-0.7-1.6-1.2-2.3
		c-0.6-0.7-1.4-1.6-2.5-2.6l-3.5-3.4c-2.7-2.5-4-5.4-4-8.6c0-3.4,0.8-5.9,2.3-7.7s3.8-2.7,6.8-2.7c3.6,0,6.2,1,7.7,2.9
		c1.5,1.9,2.3,4.9,2.3,8.8h-8v-2.7c0-0.5-0.2-1-0.5-1.3s-0.7-0.4-1.2-0.4c-0.6,0-1.1,0.2-1.4,0.5c-0.3,0.4-0.4,0.8-0.4,1.4
		s0.1,1.2,0.4,1.8c0.3,0.6,0.9,1.4,1.8,2.2l4.6,4.4c0.9,0.9,1.8,1.8,2.5,2.8c0.8,1,1.4,2.1,1.8,3.4c0.5,1.3,0.7,2.8,0.7,4.7
		c0,3.7-0.7,6.6-2.1,8.7C167.1,259.4,164.7,260.4,161.3,260.4z"/>
	<path class="st1" d="M176.6,260.1v-31.9h-4.7v-7.6h17.3v7.6h-4.7v31.9H176.6z"/>
	<path class="st1" d="M191,260.1v-39.5h7.6v39.5H191z"/>
	<path class="st1" d="M205.2,260.1v-31.9h-4.7v-7.6h17.3v7.6h-4.7v31.9H205.2z"/>
	<path class="st1" d="M229.1,260.4c-3.3,0-5.7-0.9-7.3-2.8c-1.6-1.8-2.3-4.6-2.3-8.2v-29h7.7v28.6c0,0.7,0,1.3,0.1,1.9
		c0.1,0.6,0.2,1.1,0.5,1.5s0.7,0.6,1.3,0.6c0.6,0,1.1-0.2,1.3-0.6c0.3-0.4,0.4-0.9,0.5-1.5c0.1-0.6,0.1-1.3,0.1-1.9v-28.6h7.7v29
		c0,3.6-0.8,6.3-2.3,8.2C234.8,259.5,232.4,260.4,229.1,260.4z"/>
	<path class="st1" d="M245.2,260.1v-31.9h-4.7v-7.6h17.3v7.6h-4.7v31.9H245.2z"/>
	<path class="st1" d="M260,260.1v-39.5h15.8v7.6H268v7.7h7.5v7.4H268v9.1h8.3v7.7H260z"/>
</g>
</svg>
